<?xml version="1.0" encoding="UTF-8" standalone="no"?>
<!-- Created with Inkscape (http://www.inkscape.org/) -->

<svg
     xmlns:dc="http://purl.org/dc/elements/1.1/"
     xmlns:cc="http://creativecommons.org/ns#"
     xmlns:rdf="http://www.w3.org/1999/02/22-rdf-syntax-ns#"
     xmlns:svg="http://www.w3.org/2000/svg"
     xmlns="http://www.w3.org/2000/svg"
     xmlns:sodipodi="http://sodipodi.sourceforge.net/DTD/sodipodi-0.dtd"
     xmlns:inkscape="http://www.inkscape.org/namespaces/inkscape"
     width="512"
     height="128"
     viewBox="0 0 512.00001 128"
     id="svg2"
     version="1.1"
     inkscape:version="0.91 r13725"
     sodipodi:docname="logo.svg"
     inkscape:export-filename="/home/petervaro/documents/personal/remote/psychicpaper/logo.png"
     inkscape:export-xdpi="90"
     inkscape:export-ydpi="90">
    <defs
         id="defs4" />
    <sodipodi:namedview
         id="base"
         pagecolor="#ffffff"
         bordercolor="#666666"
         borderopacity="1.0"
         inkscape:pageopacity="0.0"
         inkscape:pageshadow="2"
         inkscape:zoom="1.979899"
         inkscape:cx="218.55842"
         inkscape:cy="59.708232"
         inkscape:document-units="px"
         inkscape:current-layer="text4136"
         showgrid="false"
         units="px"
         inkscape:showpageshadow="false"
         inkscape:window-width="2560"
         inkscape:window-height="1422"
         inkscape:window-x="0"
         inkscape:window-y="0"
         inkscape:window-maximized="1" />
    <metadata
         id="metadata7">
        <rdf:RDF>
            <cc:Work
                 rdf:about="">
                <dc:format>image/svg+xml</dc:format>
                <dc:type
                     rdf:resource="http://purl.org/dc/dcmitype/StillImage" />
                <dc:title />
            </cc:Work>
        </rdf:RDF>
    </metadata>
    <g
         inkscape:label="Layer 1"
         inkscape:groupmode="layer"
         id="layer1"
         transform="translate(0,-924.36216)">
        <g
             style="font-style:normal;font-weight:normal;font-size:40px;line-height:125%;font-family:sans-serif;letter-spacing:0px;word-spacing:0px;fill:#000000;fill-opacity:1;stroke:none;stroke-width:1px;stroke-linecap:butt;stroke-linejoin:miter;stroke-opacity:1"
             id="text4136"
             transform="matrix(1.331435,0,0,1.331435,-94.946537,-324.01335)">
            <g
                 style="font-style:normal;font-weight:normal;font-size:30.04277229px;line-height:125%;font-family:sans-serif;letter-spacing:0px;word-spacing:0px;fill:#000000;fill-opacity:1;stroke:none;stroke-width:1px;stroke-linecap:butt;stroke-linejoin:miter;stroke-opacity:1"
                 id="text4180"
                 transform="matrix(2.5909378,0,0,2.5909378,-236.54372,-1239.4517)">
                <path
                     d="m 123.17617,855.72078 0,6.27894 q 0,0.78111 0.6309,1.20171 0.6309,0.39055 1.53218,0.39055 1.65236,0 2.5236,-1.47209 0.87124,-1.4721 0.87124,-3.51501 0,-5.01714 -3.30471,-5.01714 -0.99141,0 -1.62231,0.66094 -0.6309,0.6309 -0.6309,1.4721 z m -2.49355,14.06002 0,-13.90981 q 0,-0.39056 -0.36051,-0.87124 -0.36051,-0.48068 -0.87124,-0.66094 -0.6309,-0.24034 -0.6309,-0.6309 0,-0.36051 0.87124,-0.75107 0.30043,-0.15021 1.59227,-0.66094 1.32188,-0.51073 1.53218,-0.51073 0.24034,0 0.30043,0.18026 0.0601,0.18026 0.0601,0.66094 l 0,0.54077 q 0.0901,0.39056 0.4206,0.0601 0.4206,-0.4206 1.44206,-0.81116 1.02145,-0.39055 1.95278,-0.39055 1.83261,0 3.15449,1.62231 1.35192,1.62231 1.35192,3.57509 0,3.15449 -1.98282,5.52787 -1.95278,2.37338 -4.86693,2.37338 -0.36051,0 -0.75107,-0.18026 l -0.4206,-0.18026 q -0.30043,0 -0.30043,0.4206 l 0,4.83689 q 0,0.75107 0.39056,1.05149 0.39056,0.33048 1.65235,0.69099 1.29184,0.39055 1.29184,0.78111 0,0.60086 -1.02145,0.60086 -0.30043,0 -2.16308,-0.2103 -1.83261,-0.18026 -3.45492,-0.18026 -1.0515,0 -1.0515,-0.60086 0,-0.39055 1.32188,-0.78111 0.54077,-0.18025 0.54077,-1.59226 z"
                     style="font-style:normal;font-variant:normal;font-weight:normal;font-stretch:normal;font-size:30.0427742px;line-height:125%;font-family:'EB Garamond';-inkscape-font-specification:'EB Garamond, Normal';text-align:start;writing-mode:lr-tb;text-anchor:start"
                     id="path4193"
                     inkscape:connector-curvature="0" />
                <path
                     d="m 137.06392,852.02552 q 0.81115,0 2.52359,0.72102 0.2103,0.0901 0.33047,0.48069 0.15021,0.54077 0.15021,1.47209 0,0.66094 -0.36051,0.66094 -0.66094,0 -0.90128,-0.75107 -0.15022,-0.54077 -0.75107,-0.87124 -0.57082,-0.33047 -1.29184,-0.33047 -0.57081,0 -0.99141,0.39056 -0.39056,0.36051 -0.39056,0.90128 0,0.39056 0.2103,0.75107 0.2103,0.36052 0.4206,0.57081 0.2103,0.18026 0.66094,0.51073 l 2.46351,1.86265 q 1.44205,1.08154 1.44205,2.40343 0,1.89269 -1.32188,3.15449 -1.32188,1.23175 -3.21458,1.23175 -1.38197,0 -1.98282,-0.24034 -0.30043,-0.12017 -0.39056,-0.15022 -0.0601,-0.03 -0.18025,-0.15021 -0.12018,-0.12017 -0.18026,-0.30043 -0.51073,-1.32188 -0.51073,-1.89269 0,-0.96137 0.33047,-0.96137 0.78111,0 1.32188,1.20171 0.54077,1.14163 2.3133,1.14163 0.72102,0 1.23175,-0.4206 0.54077,-0.4206 0.54077,-1.08154 0,-0.2103 -0.03,-0.39056 0,-0.18026 -0.0601,-0.36051 -0.0601,-0.18026 -0.0901,-0.27039 -0.0301,-0.12017 -0.15022,-0.24034 -0.12017,-0.15021 -0.15021,-0.2103 -0.03,-0.0601 -0.2103,-0.18026 -0.18026,-0.15021 -0.2103,-0.18025 0,-0.03 -0.24034,-0.18026 l -0.2103,-0.15021 -1.44206,-1.02146 q -0.84119,-0.60085 -1.29184,-0.99141 -0.45064,-0.39055 -0.84119,-1.02145 -0.39056,-0.6309 -0.39056,-1.35193 0,-1.53218 1.14163,-2.64376 1.14162,-1.11158 2.70385,-1.11158 z"
                     style="font-style:normal;font-variant:normal;font-weight:normal;font-stretch:normal;font-size:30.0427742px;line-height:125%;font-family:'EB Garamond';-inkscape-font-specification:'EB Garamond, Normal';text-align:start;writing-mode:lr-tb;text-anchor:start"
                     id="path4195"
                     inkscape:connector-curvature="0" />
                <path
                     d="m 146.82125,863.89241 -3.36479,-8.47206 q -0.66095,-1.71244 -1.17167,-1.8927 -0.99141,-0.33047 -0.99141,-0.69098 0,-0.60085 0.72102,-0.60085 0.2103,0 0.93133,0.0901 0.75107,0.0901 0.99141,0.0901 0.2103,0 1.08154,-0.0901 0.87124,-0.0901 1.08154,-0.0901 0.33047,0 0.54077,0.18025 0.2103,0.18026 0.2103,0.4206 0,0.4206 -1.02146,0.75107 -0.12017,0.03 -0.18025,0.27039 -0.0601,0.21029 0.03,0.45064 l 2.43347,6.12872 q 0.27038,0.72103 0.51072,0.0901 l 1.98283,-5.22744 q 0.30042,-0.75107 0.30042,-1.23176 0,-0.21029 -0.18025,-0.36051 -0.18026,-0.15021 -0.33047,-0.18026 -0.8412,-0.18025 -0.8412,-0.69098 0,-0.24034 0.2103,-0.4206 0.2103,-0.18025 0.54077,-0.18025 0.2103,0 0.81115,0.0901 0.60086,0.0901 0.8412,0.0901 0.24034,0 0.72103,-0.0901 0.48068,-0.0901 0.72102,-0.0901 0.72103,0 0.72103,0.60085 0,0.36051 -1.02145,0.69098 -0.75107,0.27039 -1.29184,1.71244 l -5.79826,15.29177 q -0.27038,0.75107 -1.02145,1.50214 -0.72103,0.75107 -1.65236,0.75107 -0.69098,0 -1.11158,-0.54077 -0.4206,-0.51072 -0.4206,-1.17167 0,-0.66094 0.54077,-1.17166 0.57082,-0.51073 1.2618,-0.51073 1.50214,0 2.13304,-1.29184 1.23175,-2.61372 1.23175,-3.45492 0,-0.39056 -0.15021,-0.75107 z"
                     style="font-style:normal;font-variant:normal;font-weight:normal;font-stretch:normal;font-size:30.0427742px;line-height:125%;font-family:'EB Garamond';-inkscape-font-specification:'EB Garamond, Normal';text-align:start;writing-mode:lr-tb;text-anchor:start"
                     id="path4197"
                     inkscape:connector-curvature="0" />
                <path
                     d="m 159.91755,865.18425 q -2.34334,0 -3.87552,-1.80257 -1.53218,-1.8326 -1.53218,-4.29611 0,-2.79398 1.77252,-4.92702 1.77252,-2.13303 4.29612,-2.13303 2.28325,0 3.515,0.99141 0.99141,0.8412 0.99141,1.38196 0,0.54077 -0.36051,0.87125 -0.36051,0.30042 -0.90128,0.30042 -0.87124,0 -1.95278,-1.08154 -0.0601,-0.0601 -0.27039,-0.27038 -0.2103,-0.24034 -0.33047,-0.33047 -0.0901,-0.0901 -0.27038,-0.2103 -0.15022,-0.15022 -0.33047,-0.18026 -0.15022,-0.0601 -0.33048,-0.0601 -1.29183,0 -2.19312,1.35192 -0.87124,1.32188 -0.87124,2.88411 0,2.19312 0.96137,3.84547 0.96137,1.62231 2.76394,1.62231 0.81115,0 1.98282,-0.36051 l 1.17167,-0.33047 q 0.45064,0 0.45064,0.4206 0,0.75107 -1.35193,1.53218 -1.32188,0.78111 -3.33474,0.78111 z"
                     style="font-style:normal;font-variant:normal;font-weight:normal;font-stretch:normal;font-size:30.0427742px;line-height:125%;font-family:'EB Garamond';-inkscape-font-specification:'EB Garamond, Normal';text-align:start;writing-mode:lr-tb;text-anchor:start"
                     id="path4199"
                     inkscape:connector-curvature="0" />
                <path
                     d="m 179.1022,861.6392 q 0.0601,1.65236 1.14163,1.98283 1.08154,0.33047 1.08154,0.78111 0,0.18026 -0.03,0.30043 -0.0301,0.0901 -0.24035,0.2103 -0.18025,0.0901 -0.54077,0.0901 -0.36051,0 -1.41201,-0.0901 -1.02145,-0.0901 -1.23175,-0.0901 -0.30043,0 -1.11158,0.0901 -0.78111,0.0901 -1.11158,0.0901 -0.90129,0 -0.90129,-0.60085 0,-0.4206 1.17167,-0.78111 0.69098,-0.18026 0.69098,-1.92274 l 0,-4.59655 q 0,-1.38196 -0.75107,-2.43346 -0.72102,-1.08154 -1.86265,-1.08154 -1.35192,0 -2.16308,0.8412 -0.78111,0.81115 -0.78111,2.46351 l -0.03,4.80684 q 0,1.71244 0.69098,1.92274 1.14163,0.33047 1.14163,0.78111 0,0.60085 -0.87124,0.60085 -0.36052,0 -1.17167,-0.0901 -0.81116,-0.0901 -1.02146,-0.0901 -0.30042,0 -1.32188,0.0901 -1.02145,0.0901 -1.35192,0.0901 -0.90129,0 -0.90129,-0.60085 0,-0.4206 1.17167,-0.78111 0.57082,-0.18026 0.8412,-0.72103 0.30043,-0.57081 0.30043,-1.20171 l 0,-13.78963 q 0,-0.39056 -0.33047,-0.78112 -0.30043,-0.39055 -0.8412,-0.60085 -0.69098,-0.24034 -0.69098,-0.69099 0,-0.51072 0.87124,-0.63089 0.51072,-0.0901 1.23175,-0.27039 0.75107,-0.18026 1.2618,-0.30043 0.51072,-0.15021 0.6309,-0.15021 0.24034,0 0.30042,0.18026 0.0601,0.15021 0.0601,0.63089 l 0,7.78108 q 0,0.18026 0.03,0.30043 0.03,0.0901 0.0601,0.12017 0.03,0.03 0.12017,0 0.0901,-0.03 0.12017,-0.0601 0.03,-0.0301 0.12017,-0.12017 0.12017,-0.0901 0.15021,-0.12018 1.44206,-1.17166 3.72531,-1.17166 1.56222,0 2.64376,1.26179 1.11158,1.23176 1.11158,2.91415 l 0,5.43774 z"
                     style="font-style:normal;font-variant:normal;font-weight:normal;font-stretch:normal;font-size:30.0427742px;line-height:125%;font-family:'EB Garamond';-inkscape-font-specification:'EB Garamond, Normal';text-align:start;writing-mode:lr-tb;text-anchor:start"
                     id="path4201"
                     inkscape:connector-curvature="0" />
                <path
                     d="m 184.74931,846.047 q 0.48068,-0.48068 1.17167,-0.48068 0.69098,0 1.17167,0.48068 0.48068,0.48069 0.48068,1.14163 0,0.69098 -0.48068,1.20171 -0.48069,0.48068 -1.17167,0.48068 -0.69099,0 -1.17167,-0.48068 -0.48068,-0.51073 -0.48068,-1.20171 0,-0.66094 0.48068,-1.14163 z m 0.0901,9.82399 q 0,-0.39056 -0.36052,-0.87124 -0.36051,-0.48068 -0.87124,-0.66094 -0.63089,-0.24034 -0.63089,-0.6309 0,-0.36051 0.87124,-0.75107 0.30042,-0.15021 1.59226,-0.66094 1.32189,-0.51073 1.53219,-0.51073 0.24034,0 0.30042,0.18026 0.0601,0.18026 0.0601,0.69098 l 0,9.04288 q 0,0.6309 0.27038,1.20171 0.30043,0.54077 0.87124,0.72103 1.29184,0.39055 1.29184,0.78111 0,0.60085 -1.02145,0.60085 -0.36051,0 -1.41201,-0.0901 -1.02146,-0.0901 -1.23176,-0.0901 -0.30042,0 -1.32188,0.0901 -1.02145,0.0901 -1.35192,0.0901 -1.0515,0 -1.0515,-0.60085 0,-0.39056 1.32188,-0.78111 0.57082,-0.18026 0.8412,-0.72103 0.30043,-0.57081 0.30043,-1.20171 l 0,-5.8283 z"
                     style="font-style:normal;font-variant:normal;font-weight:normal;font-stretch:normal;font-size:30.0427742px;line-height:125%;font-family:'EB Garamond';-inkscape-font-specification:'EB Garamond, Normal';text-align:start;writing-mode:lr-tb;text-anchor:start"
                     id="path4203"
                     inkscape:connector-curvature="0" />
                <path
                     d="m 196.29747,865.18425 q -2.34333,0 -3.87551,-1.80257 -1.53218,-1.8326 -1.53218,-4.29611 0,-2.79398 1.77252,-4.92702 1.77252,-2.13303 4.29612,-2.13303 2.28325,0 3.515,0.99141 0.99141,0.8412 0.99141,1.38196 0,0.54077 -0.36051,0.87125 -0.36051,0.30042 -0.90128,0.30042 -0.87125,0 -1.95279,-1.08154 -0.0601,-0.0601 -0.27038,-0.27038 -0.2103,-0.24034 -0.33047,-0.33047 -0.0901,-0.0901 -0.27039,-0.2103 -0.15021,-0.15022 -0.33047,-0.18026 -0.15021,-0.0601 -0.33047,-0.0601 -1.29184,0 -2.19312,1.35192 -0.87124,1.32188 -0.87124,2.88411 0,2.19312 0.96137,3.84547 0.96137,1.62231 2.76393,1.62231 0.81116,0 1.98283,-0.36051 l 1.17167,-0.33047 q 0.45064,0 0.45064,0.4206 0,0.75107 -1.35193,1.53218 -1.32188,0.78111 -3.33475,0.78111 z"
                     style="font-style:normal;font-variant:normal;font-weight:normal;font-stretch:normal;font-size:30.0427742px;line-height:125%;font-family:'EB Garamond';-inkscape-font-specification:'EB Garamond, Normal';text-align:start;writing-mode:lr-tb;text-anchor:start"
                     id="path4205"
                     inkscape:connector-curvature="0" />
                <path
                     d="m 209.17314,852.47616 q 1.23176,-0.45064 2.61372,-0.45064 1.86266,0 2.55364,0.87124 0.72103,0.87124 0.72103,2.37338 0,2.0429 -1.29184,4.41628 -1.29184,2.37338 -3.18454,3.99569 -1.86265,1.59227 -3.45492,1.59227 -0.0901,0 -0.60085,-0.18026 -0.51073,-0.15021 -0.57081,-0.15021 -0.33047,0 -0.45065,0.51073 l -1.26179,5.07722 q -0.12017,0.45065 0.30043,0.81116 0.42059,0.39056 1.05149,0.54077 0.78111,0.18026 0.78111,0.60086 0,0.54076 -0.93132,0.54076 -0.03,0 -1.86265,-0.12017 -1.83261,-0.0901 -2.88411,-0.0901 -0.81115,0 -0.81115,-0.51073 0,-0.51073 0.81115,-0.66094 0.69098,-0.15022 0.93133,-0.39056 0.2103,-0.24034 0.39055,-0.87124 l 3.75535,-14.9613 q 0.0901,-0.39056 0.03,-0.48069 -0.0601,-0.0901 -0.36051,0.03 l -1.4721,0.54077 q -0.24034,0 -0.30042,-0.0601 -0.0601,-0.0601 -0.0601,-0.30043 0,-0.39055 0.78111,-0.90128 0.78111,-0.54077 1.32188,-0.78111 0.39056,-0.15021 0.51073,-0.30043 0.12017,-0.15021 0.24034,-0.6309 0.24035,-0.87124 0.8412,-1.86265 0.6309,-1.02145 1.23175,-1.02145 0.33048,0 0.36052,0.93132 0.03,0.90129 -0.0901,1.41201 -0.0901,0.51073 0,0.57082 0.12017,0.0601 0.36051,-0.0901 z m -0.96137,2.22316 -1.83261,7.36048 q -0.18025,0.72103 0.27039,1.23176 0.45064,0.51072 1.23175,0.51072 0.93133,0 2.04291,-1.47209 1.14163,-1.4721 1.8927,-3.51501 0.78111,-2.07295 0.78111,-3.69526 0,-0.6309 -0.39056,-1.11158 -0.36051,-0.48069 -0.93132,-0.48069 -2.76394,0 -3.06437,1.17167 z"
                     style="font-style:italic;font-variant:normal;font-weight:normal;font-stretch:normal;font-size:30.0427742px;line-height:125%;font-family:'EB Garamond';-inkscape-font-specification:'EB Garamond, Italic';text-align:start;writing-mode:lr-tb;text-anchor:start"
                     id="path4207"
                     inkscape:connector-curvature="0" />
                <path
                     d="m 218.79341,862.36023 q 0,0.8412 0.54077,0.8412 1.17166,0 2.85406,-1.50214 1.71244,-1.53218 2.91415,-3.36479 1.23175,-1.83261 1.23175,-2.79398 0,-0.33047 -0.36051,-0.66094 -0.33047,-0.36051 -0.81116,-0.36051 -0.69098,0 -2.2532,1.47209 -1.53219,1.4721 -2.82402,3.39484 -1.29184,1.92273 -1.29184,2.97423 z m 10.6051,-9.64373 -2.46351,9.85403 q -0.12017,0.51073 0.24034,0.51073 0.6309,0 1.4721,-0.72103 0.84119,-0.72103 0.99141,-0.72103 0.2103,0 0.2103,0.39056 0,0.8412 -1.4721,2.10299 -1.44205,1.23176 -2.73389,1.23176 -0.57081,0 -0.8412,-0.39056 -0.27038,-0.36051 -0.27038,-0.93132 0,-0.57082 0.12017,-1.20172 0.12017,-0.63089 0.24034,-1.20171 0.0601,-0.24034 0.0901,-0.33047 0.03,-0.2103 -0.0601,-0.24034 -0.0901,-0.03 -0.18025,0.12017 -3.09441,4.17595 -6.63946,4.17595 -0.96137,0 -1.56222,-0.4206 -0.60086,-0.45064 -0.60086,-1.29184 0,-2.04291 1.92274,-4.65663 1.92274,-2.61372 4.29612,-4.3562 2.37338,-1.77253 3.7253,-1.77253 0.24034,0 0.48069,0.0901 0.27038,0.0901 0.33047,0.0901 0.30042,0 0.75106,-1.02145 0.15022,-0.36052 0.54077,-0.36052 0.8412,0 1.17167,0.33047 0.33047,0.30043 0.24035,0.72103 z"
                     style="font-style:italic;font-variant:normal;font-weight:normal;font-stretch:normal;font-size:30.0427742px;line-height:125%;font-family:'EB Garamond';-inkscape-font-specification:'EB Garamond, Italic';text-align:start;writing-mode:lr-tb;text-anchor:start"
                     id="path4209"
                     inkscape:connector-curvature="0" />
                <path
                     d="m 237.4556,852.47616 q 1.23175,-0.45064 2.61372,-0.45064 1.86265,0 2.55364,0.87124 0.72102,0.87124 0.72102,2.37338 0,2.0429 -1.29184,4.41628 -1.29184,2.37338 -3.18453,3.99569 -1.86265,1.59227 -3.45492,1.59227 -0.0901,0 -0.60086,-0.18026 -0.51072,-0.15021 -0.57081,-0.15021 -0.33047,0 -0.45064,0.51073 l -1.2618,5.07722 q -0.12017,0.45065 0.30043,0.81116 0.4206,0.39056 1.0515,0.54077 0.78111,0.18026 0.78111,0.60086 0,0.54076 -0.93133,0.54076 -0.03,0 -1.86265,-0.12017 -1.83261,-0.0901 -2.8841,-0.0901 -0.81116,0 -0.81116,-0.51073 0,-0.51073 0.81116,-0.66094 0.69098,-0.15022 0.93132,-0.39056 0.2103,-0.24034 0.39056,-0.87124 l 3.75534,-14.9613 q 0.0901,-0.39056 0.0301,-0.48069 -0.0601,-0.0901 -0.36052,0.03 l -1.47209,0.54077 q -0.24034,0 -0.30043,-0.0601 -0.0601,-0.0601 -0.0601,-0.30043 0,-0.39055 0.78111,-0.90128 0.78111,-0.54077 1.32188,-0.78111 0.39056,-0.15021 0.51073,-0.30043 0.12017,-0.15021 0.24034,-0.6309 0.24034,-0.87124 0.8412,-1.86265 0.63089,-1.02145 1.23175,-1.02145 0.33047,0 0.36051,0.93132 0.03,0.90129 -0.0901,1.41201 -0.0901,0.51073 0,0.57082 0.12017,0.0601 0.36051,-0.0901 z m -0.96137,2.22316 -1.83261,7.36048 q -0.18026,0.72103 0.27039,1.23176 0.45064,0.51072 1.23175,0.51072 0.93133,0 2.04291,-1.47209 1.14162,-1.4721 1.89269,-3.51501 0.78111,-2.07295 0.78111,-3.69526 0,-0.6309 -0.39055,-1.11158 -0.36051,-0.48069 -0.93133,-0.48069 -2.76393,0 -3.06436,1.17167 z"
                     style="font-style:italic;font-variant:normal;font-weight:normal;font-stretch:normal;font-size:30.0427742px;line-height:125%;font-family:'EB Garamond';-inkscape-font-specification:'EB Garamond, Italic';text-align:start;writing-mode:lr-tb;text-anchor:start"
                     id="path4211"
                     inkscape:connector-curvature="0" />
                <path
                     d="m 248.24753,857.61347 q 0,0.2103 0.18026,0.2103 1.65235,0 2.94419,-1.29184 1.32188,-1.32188 1.32188,-2.58368 0,-0.72102 -1.08154,-0.72102 -0.72103,0 -2.04291,1.65235 -1.32188,1.62231 -1.32188,2.73389 z m 3.81543,-5.58795 q 2.88411,0 2.88411,2.31329 0,1.68239 -2.43347,3.15449 -2.40342,1.44205 -4.38624,1.44205 -0.2103,0 -0.36051,0.51073 -0.15022,0.48069 -0.15022,0.99141 0,1.17167 0.45064,2.01287 0.45064,0.8412 1.38197,0.8412 0.60086,0 1.29184,-0.33047 0.69098,-0.36052 1.17167,-0.72103 0.48068,-0.36051 0.57081,-0.36051 0.4206,0 0.4206,0.72102 0,0.69099 -1.59227,1.71244 -1.59226,0.99141 -3.18453,0.99141 -1.4721,0 -2.3133,-1.32188 -0.84119,-1.32188 -0.84119,-3.03432 0,-3.30471 2.25321,-6.09868 2.2532,-2.82402 4.83688,-2.82402 z"
                     style="font-style:italic;font-variant:normal;font-weight:normal;font-stretch:normal;font-size:30.0427742px;line-height:125%;font-family:'EB Garamond';-inkscape-font-specification:'EB Garamond, Italic';text-align:start;writing-mode:lr-tb;text-anchor:start"
                     id="path4213"
                     inkscape:connector-curvature="0" />
                <path
                     d="m 264.08571,854.96971 q -0.75107,0 -2.88411,3.57509 -2.10299,3.57509 -3.15449,5.88838 -0.39056,0.90128 -0.72103,0.93133 -0.36051,0.03 -0.90128,-0.30043 -0.51073,-0.30043 -0.51073,-0.45064 0,-0.36052 0.45064,-1.65235 l 2.67381,-7.48066 q 0.18026,-0.36051 0.15022,-0.81115 -0.0301,-0.45064 -0.36052,-0.45064 -0.66094,0 -1.50214,0.69098 -0.81115,0.66094 -0.93132,0.66094 -0.33047,0 -0.33047,-0.6309 0,-0.63089 1.38196,-1.77252 1.38197,-1.14162 2.70385,-1.14162 0.51073,0 0.8412,0.57081 0.33047,0.54077 0.2103,1.20171 -0.24034,1.20171 -0.96137,3.12445 -0.0601,0.15021 0.0901,0.24034 0.18026,0.0601 0.27039,-0.0601 2.22316,-3.18453 3.18453,-4.11586 0.96137,-0.96136 1.95278,-0.96136 0.54077,0 1.02145,0.27038 0.48069,0.27039 0.48069,0.72103 0,0.8412 -0.6309,1.71244 -0.60085,0.87124 -1.0515,0.87124 -0.36051,0 -0.81115,-0.30043 -0.4206,-0.33047 -0.66094,-0.33047 z"
                     style="font-style:italic;font-variant:normal;font-weight:normal;font-stretch:normal;font-size:30.0427742px;line-height:125%;font-family:'EB Garamond';-inkscape-font-specification:'EB Garamond, Italic';text-align:start;writing-mode:lr-tb;text-anchor:start"
                     id="path4215"
                     inkscape:connector-curvature="0" />
            </g>
        </g>
    </g>
</svg>
